<svg width="52" height="23" viewBox="0 0 52 23" fill="none" xmlns="http://www.w3.org/2000/svg">
<circle cx="41.9288" cy="11.0714" r="10.0714" fill="#09B0D3"/>
<path fill-rule="evenodd" clip-rule="evenodd" d="M40.5238 15.5732H44.7167C45.0994 15.5732 45.4137 15.3294 45.5506 14.9786L46.9426 11.5375C46.9837 11.4255 47.006 11.3089 47.006 11.1817V10.2008C47.006 9.66493 46.5918 9.06726 46.0844 9.06726H43.1786L43.8544 7.29958C43.9649 6.49103 43.1908 5.78842 42.4745 6.11945C42.3792 6.16304 42.2956 6.22235 42.2302 6.30042L39.8658 9.04952C39.7001 9.22492 39.5977 9.46875 39.5977 9.73793V14.6177C39.5977 15.154 40.0169 15.5732 40.5238 15.5732" fill="white"/>
<path fill-rule="evenodd" clip-rule="evenodd" d="M38.4336 9.48999H37.3802C37.1126 9.48999 36.8931 9.70949 36.8931 9.97715V15.086C36.8931 15.3537 37.1126 15.5732 37.3802 15.5732H38.4336C38.7013 15.5732 38.9208 15.3537 38.9208 15.086V9.97715C38.9208 9.70949 38.7013 9.48999 38.4336 9.48999" fill="white"/>
<circle cx="26.4992" cy="11.0714" r="10.5714" fill="#061A73" stroke="white"/>
<path fill-rule="evenodd" clip-rule="evenodd" d="M29.8527 9.7244L25.7402 13.8369C25.6256 13.9515 25.4752 14.009 25.3248 14.009C25.1744 14.009 25.024 13.9515 24.9095 13.8369L23.147 12.0744C22.9173 11.8447 22.9173 11.4734 23.147 11.2437C23.3767 11.014 23.748 11.014 23.9777 11.2437L25.3248 12.5908L29.022 8.89367C29.2517 8.66396 29.623 8.66396 29.8527 8.89367C30.0824 9.12338 30.0824 9.49468 29.8527 9.7244M26.499 5.19653C23.2548 5.19653 20.624 7.82736 20.624 11.0715C20.624 14.3157 23.2548 16.9465 26.499 16.9465C29.7432 16.9465 32.374 14.3157 32.374 11.0715C32.374 7.82736 29.7432 5.19653 26.499 5.19653" fill="white"/>
<circle cx="11.0714" cy="11.0714" r="10.5714" fill="#DD002E" stroke="white"/>
<path fill-rule="evenodd" clip-rule="evenodd" d="M11.4304 15.9595C11.233 16.1563 10.9097 16.1563 10.7123 15.9595C9.56064 14.8091 6.03564 11.1606 6.03564 9.59055C6.03564 8.05977 7.24422 6.875 8.80529 6.875C9.68654 6.875 10.5174 7.27009 11.0714 7.91204C11.6253 7.27009 12.4562 6.875 13.3374 6.875C14.8985 6.875 16.1071 8.05977 16.1071 9.59055C16.1071 11.1606 12.5821 14.8091 11.4304 15.9595" fill="white"/>
</svg>
