<svg width="14" height="14" viewBox="0 0 14 14" fill="none" xmlns="http://www.w3.org/2000/svg">
<path fill-rule="evenodd" clip-rule="evenodd" d="M5.02672 13.2029H10.8309C11.3607 13.2029 11.7958 12.8654 11.9853 12.3798L13.9123 7.6163C13.9691 7.46121 14 7.29981 14 7.12367V5.76579C14 5.02404 13.4267 4.19668 12.7242 4.19668H8.70178L9.63722 1.74968C9.7902 0.630387 8.71863 -0.342237 7.72705 0.116005C7.59513 0.176356 7.47934 0.25846 7.38881 0.36653L4.11585 4.17211C3.88638 4.41492 3.74463 4.75246 3.74463 5.12509V11.8801C3.74463 12.6226 4.32498 13.2029 5.02672 13.2029Z" fill="#009DFC"/>
<path fill-rule="evenodd" clip-rule="evenodd" d="M2.13261 4.78198H0.674381C0.303857 4.78198 0 5.08584 0 5.45636V12.5286C0 12.8991 0.303857 13.203 0.674381 13.203H2.13261C2.50314 13.203 2.807 12.8991 2.807 12.5286V5.45636C2.807 5.08584 2.50314 4.78198 2.13261 4.78198Z" fill="#009DFC"/>
</svg>
